<svg id="Layer_1" data-name="Layer 1" xmlns="http://www.w3.org/2000/svg" xmlns:xlink="http://www.w3.org/1999/xlink" viewBox="0 0 223.57 48"><defs><style>.cls-1{fill:url(#linear-gradient);}.cls-2{fill:url(#linear-gradient-2);}.cls-3{fill:url(#linear-gradient-3);}</style><linearGradient id="linear-gradient" x1="202.17" y1="16.64" x2="221.48" y2="39.97" gradientUnits="userSpaceOnUse"><stop offset="0" stop-color="#fff200"/><stop offset="1" stop-color="#f99b1c"/></linearGradient><linearGradient id="linear-gradient-2" x1="9.01" y1="16.64" x2="28.32" y2="39.97" xlink:href="#linear-gradient"/><linearGradient id="linear-gradient-3" x1="62.25" y1="78.12" x2="185.67" y2="-45.31" xlink:href="#linear-gradient"/></defs><title>special-01</title><polygon class="cls-1" points="207.34 9.13 212.95 18.15 223.57 18.64 216.72 26.77 219.54 37.01 209.7 33.02 200.82 38.87 201.58 28.27 193.28 21.64 203.59 19.08 207.34 9.13"/><polygon class="cls-2" points="14.18 9.13 19.79 18.15 30.41 18.64 23.57 26.77 26.38 37.01 16.54 33.02 7.67 38.87 8.42 28.27 0.12 21.64 10.44 19.08 14.18 9.13"/><path class="cls-3" d="M47.77,14.42Q43,14.42,43,17.54a2.36,2.36,0,0,0,1.17,2.12,17.19,17.19,0,0,0,1.95.89q1.34,0.54,3.55,1.23a26,26,0,0,1,3.64,1.43,8.3,8.3,0,0,1,2.38,1.71,5.9,5.9,0,0,1,1.32,2.27,10.39,10.39,0,0,1,.41,3.12,10.51,10.51,0,0,1-.74,4.09,7.84,7.84,0,0,1-2.08,2.92,9.09,9.09,0,0,1-3.2,1.77,13.37,13.37,0,0,1-4.16.61,41,41,0,0,1-8.27-1l-1.56-.3,0.61-4.63a72.06,72.06,0,0,0,8.87.78q4.59,0,4.59-3.81a2.55,2.55,0,0,0-1-2.16,16.3,16.3,0,0,0-4.24-1.69A32,32,0,0,1,42,25.31a9.82,9.82,0,0,1-2.84-1.86A6.27,6.27,0,0,1,37.59,21,9.15,9.15,0,0,1,37.12,18q0-4.46,2.66-6.6a11.47,11.47,0,0,1,7.38-2.14,34.84,34.84,0,0,1,3.64.22q2,0.22,4.5.65l1.56,0.3-0.48,4.72q-3.07-.35-5.22-0.52T47.77,14.42ZM73.09,30.61H68.24v8.57h-6V9.74H73.09Q83.57,9.74,83.57,20q0,5.2-2.64,7.92T73.09,30.61ZM68.24,14.85V25.5H73q4.46,0,4.46-5.54A5.84,5.84,0,0,0,76.45,16,4.34,4.34,0,0,0,73,14.85H68.24ZM87.77,39.18V9.74h19v5.19H93.74v6.88h10.48v5.11H93.74V34h13.07v5.2h-19Zm42.51-5.37,0.13,4.89q-2.34.48-4.37,0.74a30.85,30.85,0,0,1-3.9.26,15.74,15.74,0,0,1-5.89-.91,7.26,7.26,0,0,1-3.46-2.9,12.89,12.89,0,0,1-1.73-4.68,39.72,39.72,0,0,1-.48-6.75,40,40,0,0,1,.54-7.19,11.56,11.56,0,0,1,1.84-4.7A7.15,7.15,0,0,1,116.42,10a16.14,16.14,0,0,1,5.41-.78,37.26,37.26,0,0,1,8.62,1.17l-0.17,4.76a49.06,49.06,0,0,0-7.1-.65,14.11,14.11,0,0,0-2.4.17,4.71,4.71,0,0,0-1.64.58A3.12,3.12,0,0,0,118,16.39a8,8,0,0,0-.71,1.75,16,16,0,0,0-.45,2.86q-0.15,1.78-.15,4.37a29.63,29.63,0,0,0,.26,4.29,7.22,7.22,0,0,0,.93,2.79A3.72,3.72,0,0,0,119.76,34a8.18,8.18,0,0,0,2.94.46q1.82,0,3.68-.15T130.28,33.81Zm5,5.37V9.74h6V39.18h-6Zm9.91,0,6.62-29.44h11.34l6.62,29.44h-6l-1.17-5.33h-10.3l-1.17,5.33h-6Zm11.25-24.5-3,14h8.05l-3-14h-2.08Zm34,24.5H173.7V9.74h6V33.9h10.78v5.28Z"/></svg>